<svg xmlns="http://www.w3.org/2000/svg" width="364.833" height="150.609" viewBox="0 0 364.833 150.609">
  <g id="Group_423" data-name="Group 423" transform="translate(-809.94 -403.577)" opacity="0.1">
    <path id="Path_4337" data-name="Path 4337" d="M953.407,548.087,857.9,452.579a8.989,8.989,0,0,1,0-12.713l33.655-33.656a8.989,8.989,0,0,1,12.713,0l95.508,95.508a8.989,8.989,0,0,1,0,12.713L966.12,548.087a8.989,8.989,0,0,1-12.713,0" transform="translate(9.471)" fill="#91b40d"/>
    <path id="Path_4338" data-name="Path 4338" d="M854.7,538.611,812.573,496.48a8.989,8.989,0,0,1,0-12.713l33.656-33.656a8.993,8.993,0,0,1,12.715,0l42.127,42.131a8.99,8.99,0,0,1,0,12.713l-33.655,33.656a8.987,8.987,0,0,1-12.713,0" transform="translate(0 9.173)" fill="#ffbf00"/>
    <path id="Path_4339" data-name="Path 4339" d="M1146.659,545.2a8.989,8.989,0,0,1-8.99,8.99h-28.634a144.626,144.626,0,0,1-102.939-42.64l-58.969-58.968a8.989,8.989,0,0,1,0-12.713l33.655-33.655a8.988,8.988,0,0,1,12.713,0l58.969,58.968a79.475,79.475,0,0,0,56.571,23.434h28.634a8.99,8.99,0,0,1,8.99,8.991Z" transform="translate(28.114 0)" fill="#1a5221"/>
  </g>
</svg>
